<svg xmlns="http://www.w3.org/2000/svg" xmlns:xlink="http://www.w3.org/1999/xlink" width="40" zoomAndPan="magnify" viewBox="0 0 30 30.000001" height="40" preserveAspectRatio="xMidYMid meet" version="1.0"><defs><clipPath id="9f67190a92"><path d="M 0.484375 0 L 29.515625 0 L 29.515625 29.03125 L 0.484375 29.03125 Z M 0.484375 0 " clip-rule="nonzero"/></clipPath></defs><g clip-path="url(#9f67190a92)"><path fill="#b22312" d="M 7.015625 0 L 22.96875 0 C 24.769531 0 26.402344 0.730469 27.59375 1.921875 C 28.769531 3.09375 29.515625 4.746094 29.515625 6.53125 L 29.515625 22.484375 C 29.515625 24.285156 28.769531 25.917969 27.59375 27.109375 C 26.402344 28.285156 24.769531 29.03125 22.96875 29.03125 L 7.015625 29.03125 C 5.230469 29.03125 3.578125 28.285156 2.40625 27.109375 C 1.214844 25.917969 0.484375 24.285156 0.484375 22.484375 L 0.484375 6.53125 C 0.484375 4.746094 1.214844 3.09375 2.40625 1.921875 C 3.578125 0.730469 5.230469 0 7.015625 0 Z M 22.96875 2.585938 L 7.015625 2.585938 C 5.925781 2.585938 4.941406 3.027344 4.226562 3.742188 C 3.511719 4.457031 3.070312 5.441406 3.070312 6.53125 L 3.070312 22.484375 C 3.070312 23.574219 3.511719 24.558594 4.226562 25.273438 C 4.941406 26.003906 5.925781 26.445312 7.015625 26.445312 L 22.96875 26.445312 C 24.054688 26.445312 25.042969 26.003906 25.757812 25.273438 C 26.488281 24.558594 26.929688 23.574219 26.929688 22.484375 L 26.929688 6.53125 C 26.929688 5.441406 26.488281 4.457031 25.757812 3.742188 C 25.042969 3.027344 24.054688 2.585938 22.96875 2.585938 Z M 22.96875 2.585938 " fill-opacity="1" fill-rule="nonzero"/></g><path fill="#b22312" d="M 23.136719 5.066406 C 23.496094 5.066406 23.835938 5.203125 24.054688 5.441406 C 24.292969 5.679688 24.449219 6.003906 24.449219 6.359375 C 24.449219 6.71875 24.292969 7.058594 24.054688 7.28125 C 23.835938 7.515625 23.496094 7.671875 23.136719 7.671875 C 22.78125 7.671875 22.457031 7.515625 22.21875 7.28125 C 21.980469 7.058594 21.84375 6.71875 21.84375 6.359375 C 21.84375 6.003906 21.980469 5.679688 22.21875 5.441406 C 22.457031 5.203125 22.78125 5.066406 23.136719 5.066406 Z M 23.136719 5.066406 " fill-opacity="1" fill-rule="nonzero"/><path fill="#b22312" d="M 14.992188 7.464844 C 16.949219 7.464844 18.699219 8.265625 19.976562 9.523438 C 21.25 10.800781 22.050781 12.570312 22.050781 14.507812 C 22.050781 16.464844 21.25 18.214844 19.976562 19.492188 C 18.699219 20.765625 16.949219 21.566406 14.992188 21.566406 C 13.050781 21.566406 11.285156 20.765625 10.007812 19.492188 C 8.75 18.214844 7.949219 16.464844 7.949219 14.507812 C 7.949219 12.570312 8.75 10.800781 10.007812 9.523438 C 11.285156 8.265625 13.050781 7.464844 14.992188 7.464844 Z M 18.136719 11.378906 C 17.339844 10.578125 16.214844 10.070312 14.992188 10.070312 C 13.765625 10.070312 12.660156 10.578125 11.863281 11.378906 C 11.0625 12.175781 10.550781 13.28125 10.550781 14.507812 C 10.550781 15.730469 11.0625 16.855469 11.863281 17.652344 C 12.660156 18.453125 13.765625 18.945312 14.992188 18.945312 C 16.214844 18.945312 17.339844 18.453125 18.136719 17.652344 C 18.9375 16.855469 19.429688 15.730469 19.429688 14.507812 C 19.429688 13.28125 18.9375 12.175781 18.136719 11.378906 Z M 18.136719 11.378906 " fill-opacity="1" fill-rule="nonzero"/></svg>