<svg xmlns="http://www.w3.org/2000/svg" xmlns:xlink="http://www.w3.org/1999/xlink" width="40" zoomAndPan="magnify" viewBox="0 0 30 30.000001" height="40" preserveAspectRatio="xMidYMid meet" version="1.0"><defs><clipPath id="28534d1bb8"><path d="M 0.484375 0 L 29.515625 0 L 29.515625 29.03125 L 0.484375 29.03125 Z M 0.484375 0 " clip-rule="nonzero"/></clipPath></defs><path fill="#c47970" d="M 15.214844 14.523438 C 16.878906 14.523438 17.964844 13.617188 17.964844 11.953125 C 17.964844 10.289062 16.878906 9.488281 15.171875 9.488281 L 12.523438 9.488281 L 12.523438 14.523438 Z M 10.160156 7.332031 L 15.316406 7.332031 C 18.398438 7.332031 20.371094 8.976562 20.371094 11.914062 C 20.371094 14.132812 19.136719 15.527344 17.390625 16.144531 L 20.761719 21.714844 L 18.007812 21.714844 L 14.96875 16.636719 C 14.945312 16.617188 14.207031 16.636719 14.1875 16.636719 L 12.523438 16.636719 L 12.523438 21.714844 L 10.160156 21.714844 L 10.160156 7.332031 " fill-opacity="1" fill-rule="nonzero"/><g clip-path="url(#28534d1bb8)"><path fill="#c47970" d="M 14.996094 2.492188 C 13.375 2.492188 11.800781 2.808594 10.316406 3.433594 C 8.886719 4.039062 7.601562 4.90625 6.496094 6.011719 C 5.390625 7.117188 4.523438 8.402344 3.917969 9.835938 C 3.292969 11.316406 2.972656 12.890625 2.972656 14.515625 C 2.972656 16.136719 3.292969 17.710938 3.917969 19.195312 C 4.523438 20.625 5.390625 21.910156 6.496094 23.015625 C 7.601562 24.121094 8.886719 24.988281 10.316406 25.59375 C 11.800781 26.21875 13.375 26.539062 14.996094 26.539062 C 16.621094 26.539062 18.195312 26.21875 19.675781 25.59375 C 21.109375 24.988281 22.394531 24.121094 23.5 23.015625 C 24.605469 21.910156 25.472656 20.625 26.078125 19.195312 C 26.703125 17.710938 27.019531 16.136719 27.019531 14.515625 C 27.019531 12.890625 26.703125 11.316406 26.078125 9.835938 C 25.472656 8.402344 24.605469 7.117188 23.5 6.011719 C 22.394531 4.90625 21.109375 4.039062 19.675781 3.433594 C 18.195312 2.808594 16.621094 2.492188 14.996094 2.492188 Z M 14.996094 29.027344 C 13.039062 29.027344 11.136719 28.644531 9.347656 27.886719 C 7.617188 27.15625 6.066406 26.109375 4.734375 24.777344 C 3.402344 23.445312 2.355469 21.894531 1.625 20.164062 C 0.867188 18.375 0.484375 16.472656 0.484375 14.515625 C 0.484375 12.554688 0.867188 10.652344 1.625 8.863281 C 2.355469 7.136719 3.402344 5.582031 4.734375 4.25 C 6.066406 2.917969 7.617188 1.871094 9.347656 1.140625 C 11.136719 0.382812 13.039062 0 14.996094 0 C 16.957031 0 18.859375 0.382812 20.648438 1.140625 C 22.375 1.871094 23.929688 2.917969 25.261719 4.25 C 26.59375 5.582031 27.640625 7.136719 28.371094 8.863281 C 29.128906 10.652344 29.511719 12.554688 29.511719 14.515625 C 29.511719 16.472656 29.128906 18.375 28.371094 20.164062 C 27.640625 21.894531 26.59375 23.445312 25.261719 24.777344 C 23.929688 26.109375 22.375 27.15625 20.648438 27.886719 C 18.859375 28.644531 16.957031 29.027344 14.996094 29.027344 " fill-opacity="1" fill-rule="nonzero"/></g></svg>