<svg xmlns="http://www.w3.org/2000/svg" xmlns:xlink="http://www.w3.org/1999/xlink" width="280" zoomAndPan="magnify" viewBox="0 0 210 209.999996" height="280" preserveAspectRatio="xMidYMid meet" version="1.0"><defs><g/></defs><g fill="#b22312" fill-opacity="1"><g transform="translate(24.855663, 114.145724)"><g><path d="M 31.234375 -48.296875 C 32.128906 -48.398438 32.863281 -48.171875 33.4375 -47.609375 C 34.007812 -47.046875 34.34375 -46.367188 34.4375 -45.578125 C 34.539062 -44.742188 34.304688 -43.921875 33.734375 -43.109375 C 33.171875 -42.304688 32.164062 -41.820312 30.71875 -41.65625 L 22.265625 -40.65625 L 14.265625 -4.640625 C 14.046875 -3.628906 13.578125 -2.832031 12.859375 -2.25 C 12.140625 -1.675781 11.328125 -1.335938 10.421875 -1.234375 C 9.453125 -1.117188 8.523438 -1.304688 7.640625 -1.796875 C 6.765625 -2.296875 6.257812 -3.078125 6.125 -4.140625 C 6.101562 -4.347656 6.09375 -4.582031 6.09375 -4.84375 C 6.101562 -5.101562 6.144531 -5.367188 6.21875 -5.640625 L 13.71875 -39.640625 L 5.671875 -38.6875 C 4.734375 -38.570312 3.957031 -38.800781 3.34375 -39.375 C 2.738281 -39.957031 2.390625 -40.628906 2.296875 -41.390625 C 2.203125 -42.222656 2.441406 -43.03125 3.015625 -43.8125 C 3.585938 -44.601562 4.613281 -45.101562 6.09375 -45.3125 Z M 31.234375 -48.296875 "/></g></g></g><g fill="#b22312" fill-opacity="1"><g transform="translate(55.865982, 110.468378)"><g><path d="M 24.5 -17.71875 C 24.644531 -18.550781 25.03125 -19.203125 25.65625 -19.671875 C 26.289062 -20.148438 26.972656 -20.429688 27.703125 -20.515625 C 28.492188 -20.617188 29.21875 -20.488281 29.875 -20.125 C 30.53125 -19.769531 30.90625 -19.191406 31 -18.390625 C 31.039062 -18.046875 31.007812 -17.679688 30.90625 -17.296875 C 30.15625 -13.867188 28.878906 -11.046875 27.078125 -8.828125 C 25.273438 -6.617188 23.195312 -4.9375 20.84375 -3.78125 C 18.488281 -2.625 16.101562 -1.90625 13.6875 -1.625 C 11.164062 -1.320312 8.84375 -1.457031 6.71875 -2.03125 C 4.601562 -2.601562 2.867188 -3.570312 1.515625 -4.9375 C 0.160156 -6.300781 -0.632812 -8.003906 -0.875 -10.046875 C -0.945312 -10.628906 -0.957031 -11.238281 -0.90625 -11.875 C -0.863281 -12.507812 -0.773438 -13.148438 -0.640625 -13.796875 L 1.375 -23.046875 C 1.96875 -25.734375 3.203125 -27.863281 5.078125 -29.4375 C 6.960938 -31.007812 9.0625 -31.9375 11.375 -32.21875 C 13.34375 -32.445312 15.097656 -32.265625 16.640625 -31.671875 C 18.179688 -31.085938 19.4375 -30.1875 20.40625 -28.96875 C 21.375 -27.757812 21.957031 -26.320312 22.15625 -24.65625 C 22.257812 -23.800781 22.234375 -22.835938 22.078125 -21.765625 C 21.671875 -19.367188 20.597656 -17.363281 18.859375 -15.75 C 17.117188 -14.132812 15.078125 -13.191406 12.734375 -12.921875 C 11.679688 -12.796875 10.679688 -12.828125 9.734375 -13.015625 C 8.785156 -13.203125 7.90625 -13.46875 7.09375 -13.8125 L 6.78125 -12.796875 C 6.707031 -12.546875 6.664062 -12.296875 6.65625 -12.046875 C 6.65625 -11.796875 6.664062 -11.546875 6.6875 -11.296875 C 6.832031 -10.128906 7.503906 -9.203125 8.703125 -8.515625 C 9.910156 -7.835938 11.46875 -7.613281 13.375 -7.84375 C 14.863281 -8.019531 16.359375 -8.484375 17.859375 -9.234375 C 19.367188 -9.992188 20.722656 -11.078125 21.921875 -12.484375 C 23.128906 -13.898438 23.988281 -15.644531 24.5 -17.71875 Z M 11.9375 -26.078125 C 11.351562 -26.003906 10.796875 -25.707031 10.265625 -25.1875 C 9.734375 -24.675781 9.378906 -24.003906 9.203125 -23.171875 L 8.453125 -19.9375 C 9.242188 -19.601562 10.171875 -19.503906 11.234375 -19.640625 C 12.023438 -19.734375 12.75 -19.988281 13.40625 -20.40625 C 14.0625 -20.832031 14.453125 -21.492188 14.578125 -22.390625 C 14.679688 -22.796875 14.707031 -23.222656 14.65625 -23.671875 C 14.5625 -24.429688 14.265625 -25.039062 13.765625 -25.5 C 13.273438 -25.96875 12.664062 -26.160156 11.9375 -26.078125 Z M 11.9375 -26.078125 "/></g></g></g><g fill="#b22312" fill-opacity="1"><g transform="translate(80.446065, 107.553558)"><g><path d="M 26.046875 -17.234375 C 26.328125 -18.390625 26.785156 -19.273438 27.421875 -19.890625 C 28.066406 -20.515625 28.769531 -20.875 29.53125 -20.96875 C 30.289062 -21.050781 30.984375 -20.910156 31.609375 -20.546875 C 32.234375 -20.179688 32.59375 -19.597656 32.6875 -18.796875 C 32.71875 -18.523438 32.707031 -18.195312 32.65625 -17.8125 C 31.832031 -13.71875 30.535156 -10.335938 28.765625 -7.671875 C 27.003906 -5.015625 25.015625 -2.972656 22.796875 -1.546875 C 23.671875 -0.878906 24.414062 -0.0546875 25.03125 0.921875 C 25.644531 1.910156 26.03125 3.0625 26.1875 4.375 C 26.21875 4.613281 26.242188 4.894531 26.265625 5.21875 C 26.285156 5.539062 26.28125 5.867188 26.25 6.203125 C 26.050781 7.867188 25.503906 9.347656 24.609375 10.640625 C 23.710938 11.941406 22.609375 12.976562 21.296875 13.75 C 19.984375 14.519531 18.617188 14.988281 17.203125 15.15625 C 15.609375 15.34375 14.109375 15.1875 12.703125 14.6875 C 11.296875 14.1875 10.113281 13.390625 9.15625 12.296875 C 8.207031 11.203125 7.640625 9.878906 7.453125 8.328125 C 7.328125 7.296875 7.378906 6.253906 7.609375 5.203125 C 7.867188 4.109375 8.070312 3.242188 8.21875 2.609375 C 8.375 1.984375 8.523438 1.347656 8.671875 0.703125 C 8.828125 0.0546875 9.019531 -0.804688 9.25 -1.890625 C 8.90625 -1.773438 8.519531 -1.65625 8.09375 -1.53125 C 7.675781 -1.414062 7.273438 -1.335938 6.890625 -1.296875 C 5.367188 -1.109375 3.960938 -1.296875 2.671875 -1.859375 C 1.378906 -2.429688 0.304688 -3.269531 -0.546875 -4.375 C -1.398438 -5.488281 -1.910156 -6.753906 -2.078125 -8.171875 C -2.140625 -8.660156 -2.144531 -9.140625 -2.09375 -9.609375 C -2.039062 -10.085938 -1.972656 -10.5625 -1.890625 -11.03125 L 1.171875 -25.0625 C 1.640625 -27.15625 2.644531 -28.773438 4.1875 -29.921875 C 5.726562 -31.066406 7.34375 -31.738281 9.03125 -31.9375 C 10.3125 -32.09375 11.515625 -32.015625 12.640625 -31.703125 C 13.765625 -31.398438 14.734375 -30.789062 15.546875 -29.875 C 15.710938 -30.84375 16.144531 -31.601562 16.84375 -32.15625 C 17.550781 -32.707031 18.304688 -33.03125 19.109375 -33.125 C 19.960938 -33.226562 20.769531 -33.035156 21.53125 -32.546875 C 22.289062 -32.054688 22.738281 -31.226562 22.875 -30.0625 C 22.90625 -29.8125 22.921875 -29.535156 22.921875 -29.234375 C 22.921875 -28.941406 22.890625 -28.617188 22.828125 -28.265625 L 17.828125 -5.671875 C 19.453125 -6.503906 21.015625 -7.816406 22.515625 -9.609375 C 24.023438 -11.398438 25.203125 -13.941406 26.046875 -17.234375 Z M 13.5625 -21.3125 C 13.59375 -21.601562 13.613281 -21.875 13.625 -22.125 C 13.632812 -22.375 13.625 -22.617188 13.59375 -22.859375 C 13.46875 -23.929688 13.109375 -24.726562 12.515625 -25.25 C 11.921875 -25.769531 11.316406 -25.992188 10.703125 -25.921875 C 10.242188 -25.867188 9.816406 -25.671875 9.421875 -25.328125 C 9.035156 -24.984375 8.789062 -24.507812 8.6875 -23.90625 L 5.765625 -9.84375 C 5.648438 -9.363281 5.613281 -8.921875 5.65625 -8.515625 C 5.78125 -7.472656 6.328125 -7.007812 7.296875 -7.125 C 8.003906 -7.164062 8.75 -7.550781 9.53125 -8.28125 C 10.320312 -9.007812 10.992188 -10.15625 11.546875 -11.71875 Z M 18.984375 5.4375 C 18.890625 4.632812 18.566406 3.96875 18.015625 3.4375 C 17.472656 2.90625 16.832031 2.523438 16.09375 2.296875 C 15.945312 3.085938 15.78125 3.875 15.59375 4.65625 C 15.40625 5.4375 15.21875 6.21875 15.03125 7 C 14.957031 7.257812 14.9375 7.523438 14.96875 7.796875 C 15.007812 8.179688 15.191406 8.484375 15.515625 8.703125 C 15.835938 8.921875 16.226562 9.003906 16.6875 8.953125 C 17.476562 8.859375 18.082031 8.453125 18.5 7.734375 C 18.925781 7.023438 19.085938 6.257812 18.984375 5.4375 Z M 18.984375 5.4375 "/></g></g></g><g fill="#b22312" fill-opacity="1"><g transform="translate(106.73742, 104.435808)"><g><path d="M 27.9375 -18.546875 C 28.101562 -19.421875 28.476562 -20.082031 29.0625 -20.53125 C 29.644531 -20.988281 30.265625 -21.253906 30.921875 -21.328125 C 31.710938 -21.421875 32.460938 -21.273438 33.171875 -20.890625 C 33.878906 -20.503906 34.285156 -19.890625 34.390625 -19.046875 C 34.421875 -18.742188 34.40625 -18.429688 34.34375 -18.109375 C 33.5625 -14.367188 32.492188 -11.398438 31.140625 -9.203125 C 29.796875 -7.015625 28.304688 -5.410156 26.671875 -4.390625 C 25.035156 -3.378906 23.382812 -2.773438 21.71875 -2.578125 C 20.164062 -2.390625 18.691406 -2.535156 17.296875 -3.015625 C 15.910156 -3.503906 14.773438 -4.257812 13.890625 -5.28125 C 13.046875 -4.125 12.066406 -3.132812 10.953125 -2.3125 C 9.835938 -1.5 8.503906 -1.003906 6.953125 -0.828125 C 5.492188 -0.648438 4.140625 -0.785156 2.890625 -1.234375 C 1.648438 -1.679688 0.625 -2.398438 -0.1875 -3.390625 C -1.007812 -4.390625 -1.503906 -5.582031 -1.671875 -6.96875 C -1.773438 -7.851562 -1.722656 -8.785156 -1.515625 -9.765625 L 2.4375 -28.15625 C 2.695312 -29.25 3.144531 -30.066406 3.78125 -30.609375 C 4.414062 -31.148438 5.097656 -31.46875 5.828125 -31.5625 C 6.796875 -31.675781 7.707031 -31.445312 8.5625 -30.875 C 9.414062 -30.3125 9.90625 -29.492188 10.03125 -28.421875 C 10.09375 -27.929688 10.050781 -27.390625 9.90625 -26.796875 L 6.1875 -9.9375 C 6.082031 -9.320312 6.054688 -8.773438 6.109375 -8.296875 C 6.210938 -7.429688 6.660156 -7.046875 7.453125 -7.140625 C 8.492188 -7.265625 9.46875 -7.914062 10.375 -9.09375 C 11.289062 -10.28125 12.03125 -11.625 12.59375 -13.125 L 16.40625 -29.71875 C 16.65625 -30.863281 17.101562 -31.710938 17.75 -32.265625 C 18.40625 -32.816406 19.113281 -33.132812 19.875 -33.21875 C 20.8125 -33.332031 21.695312 -33.113281 22.53125 -32.5625 C 23.375 -32.007812 23.851562 -31.21875 23.96875 -30.1875 C 24 -29.9375 24.007812 -29.695312 24 -29.46875 C 24 -29.238281 23.957031 -28.984375 23.875 -28.703125 L 19.78125 -10.640625 C 19.707031 -10.390625 19.6875 -10.128906 19.71875 -9.859375 C 19.757812 -9.503906 19.9375 -9.222656 20.25 -9.015625 C 20.570312 -8.816406 20.957031 -8.742188 21.40625 -8.796875 C 22.613281 -8.941406 23.796875 -9.789062 24.953125 -11.34375 C 26.117188 -12.894531 27.113281 -15.296875 27.9375 -18.546875 Z M 27.9375 -18.546875 "/></g></g></g><g fill="#b22312" fill-opacity="1"><g transform="translate(134.688195, 101.121276)"><g><path d="M 9.78125 -36.859375 C 8.601562 -36.710938 7.550781 -37.015625 6.625 -37.765625 C 5.695312 -38.523438 5.160156 -39.492188 5.015625 -40.671875 C 4.878906 -41.835938 5.175781 -42.875 5.90625 -43.78125 C 6.632812 -44.6875 7.585938 -45.210938 8.765625 -45.359375 C 9.941406 -45.492188 10.992188 -45.203125 11.921875 -44.484375 C 12.847656 -43.773438 13.378906 -42.835938 13.515625 -41.671875 C 13.660156 -40.492188 13.367188 -39.429688 12.640625 -38.484375 C 11.910156 -37.535156 10.957031 -36.992188 9.78125 -36.859375 Z M 5.90625 -9.59375 C 5.84375 -9.269531 5.828125 -8.984375 5.859375 -8.734375 C 5.910156 -8.265625 6.132812 -7.875 6.53125 -7.5625 C 6.9375 -7.257812 7.4375 -7.144531 8.03125 -7.21875 C 9.0625 -7.332031 10.148438 -8.109375 11.296875 -9.546875 C 12.453125 -10.984375 13.4375 -13.445312 14.25 -16.9375 C 14.46875 -17.769531 14.867188 -18.414062 15.453125 -18.875 C 16.046875 -19.332031 16.6875 -19.601562 17.375 -19.6875 C 18.175781 -19.78125 18.925781 -19.628906 19.625 -19.234375 C 20.320312 -18.835938 20.71875 -18.238281 20.8125 -17.4375 C 20.84375 -17.132812 20.828125 -16.820312 20.765625 -16.5 C 19.972656 -12.789062 18.910156 -9.832031 17.578125 -7.625 C 16.253906 -5.414062 14.765625 -3.800781 13.109375 -2.78125 C 11.453125 -1.769531 9.773438 -1.160156 8.078125 -0.953125 C 6.492188 -0.765625 5 -0.894531 3.59375 -1.34375 C 2.1875 -1.789062 1.007812 -2.535156 0.0625 -3.578125 C -0.882812 -4.628906 -1.453125 -5.96875 -1.640625 -7.59375 C -1.691406 -8.03125 -1.664062 -8.566406 -1.5625 -9.203125 C -1.457031 -9.847656 -1.367188 -10.445312 -1.296875 -11 C -0.941406 -12.6875 -0.550781 -14.484375 -0.125 -16.390625 C 0.289062 -18.304688 0.710938 -20.210938 1.140625 -22.109375 C 1.566406 -24.015625 1.957031 -25.816406 2.3125 -27.515625 C 2.570312 -28.765625 3.054688 -29.726562 3.765625 -30.40625 C 4.484375 -31.09375 5.242188 -31.484375 6.046875 -31.578125 C 6.941406 -31.679688 7.773438 -31.484375 8.546875 -30.984375 C 9.328125 -30.484375 9.785156 -29.664062 9.921875 -28.53125 C 9.953125 -28.28125 9.929688 -27.976562 9.859375 -27.625 C 9.796875 -27.269531 9.734375 -26.910156 9.671875 -26.546875 Z M 5.90625 -9.59375 "/></g></g></g><g fill="#b22312" fill-opacity="1"><g transform="translate(149.000648, 99.42404)"><g><path d="M 6.109375 -9.296875 C 6.085938 -9.148438 6.054688 -8.988281 6.015625 -8.8125 C 5.984375 -8.632812 5.976562 -8.492188 6 -8.390625 C 6.039062 -8.003906 6.21875 -7.691406 6.53125 -7.453125 C 6.84375 -7.210938 7.253906 -7.125 7.765625 -7.1875 C 8.972656 -7.320312 10.191406 -8.171875 11.421875 -9.734375 C 12.660156 -11.296875 13.6875 -13.707031 14.5 -16.96875 C 14.757812 -17.988281 15.175781 -18.738281 15.75 -19.21875 C 16.320312 -19.707031 16.9375 -19.992188 17.59375 -20.078125 C 18.394531 -20.171875 19.140625 -19.984375 19.828125 -19.515625 C 20.515625 -19.054688 20.90625 -18.410156 21 -17.578125 C 21.039062 -17.273438 21.03125 -16.925781 20.96875 -16.53125 C 20.1875 -12.789062 19.078125 -9.816406 17.640625 -7.609375 C 16.203125 -5.410156 14.628906 -3.796875 12.921875 -2.765625 C 11.210938 -1.742188 9.53125 -1.132812 7.875 -0.9375 C 6.351562 -0.757812 4.910156 -0.875 3.546875 -1.28125 C 2.179688 -1.695312 1.046875 -2.410156 0.140625 -3.421875 C -0.765625 -4.441406 -1.3125 -5.75 -1.5 -7.34375 C -1.632812 -8.414062 -1.5625 -9.5625 -1.28125 -10.78125 L 5.84375 -42.859375 C 6.375 -45.242188 7.601562 -46.550781 9.53125 -46.78125 C 10.332031 -46.875 11.140625 -46.671875 11.953125 -46.171875 C 12.773438 -45.671875 13.242188 -44.914062 13.359375 -43.90625 C 13.421875 -43.363281 13.390625 -42.769531 13.265625 -42.125 Z M 6.109375 -9.296875 "/></g></g></g><g fill="#b22312" fill-opacity="1"><g transform="translate(163.46867, 97.708355)"><g><path d="M 30.421875 -21.390625 C 31.191406 -21.472656 31.882812 -21.320312 32.5 -20.9375 C 33.125 -20.5625 33.488281 -19.921875 33.59375 -19.015625 C 33.65625 -18.566406 33.601562 -17.984375 33.4375 -17.265625 C 33.269531 -16.554688 33.066406 -15.675781 32.828125 -14.625 C 32.046875 -11.6875 30.972656 -9.363281 29.609375 -7.65625 C 28.253906 -5.957031 26.789062 -4.707031 25.21875 -3.90625 C 23.65625 -3.113281 22.144531 -2.628906 20.6875 -2.453125 C 20.164062 -2.390625 19.457031 -2.375 18.5625 -2.40625 C 17.664062 -2.445312 16.75 -2.613281 15.8125 -2.90625 C 14.882812 -3.195312 14.101562 -3.707031 13.46875 -4.4375 C 12.59375 -3.457031 11.585938 -2.644531 10.453125 -2 C 9.328125 -1.363281 8.160156 -0.972656 6.953125 -0.828125 C 5.429688 -0.640625 4.023438 -0.828125 2.734375 -1.390625 C 1.441406 -1.960938 0.367188 -2.800781 -0.484375 -3.90625 C -1.335938 -5.019531 -1.847656 -6.285156 -2.015625 -7.703125 C -2.078125 -8.179688 -2.082031 -8.660156 -2.03125 -9.140625 C -1.988281 -9.628906 -1.925781 -10.101562 -1.84375 -10.5625 L 1.375 -25.09375 C 1.84375 -27.1875 2.847656 -28.800781 4.390625 -29.9375 C 5.929688 -31.082031 7.550781 -31.757812 9.25 -31.96875 C 10.5625 -32.125 11.726562 -32.101562 12.75 -31.90625 C 13.769531 -31.71875 14.582031 -31.476562 15.1875 -31.1875 C 15.519531 -31.90625 16.007812 -32.46875 16.65625 -32.875 C 17.3125 -33.28125 18.003906 -33.523438 18.734375 -33.609375 C 19.691406 -33.722656 20.59375 -33.535156 21.4375 -33.046875 C 22.289062 -32.554688 22.785156 -31.738281 22.921875 -30.59375 C 22.984375 -30.070312 22.945312 -29.484375 22.8125 -28.828125 L 19 -11.34375 C 18.90625 -10.695312 18.878906 -10.1875 18.921875 -9.8125 C 19.023438 -8.945312 19.539062 -8.570312 20.46875 -8.6875 C 21.269531 -8.78125 22.097656 -9.148438 22.953125 -9.796875 C 23.804688 -10.441406 24.609375 -11.4375 25.359375 -12.78125 C 26.117188 -14.132812 26.695312 -15.90625 27.09375 -18.09375 C 27.28125 -19.132812 27.703125 -19.921875 28.359375 -20.453125 C 29.015625 -20.984375 29.703125 -21.296875 30.421875 -21.390625 Z M 13.265625 -19.875 C 13.523438 -21.238281 13.613281 -22.285156 13.53125 -23.015625 C 13.425781 -23.910156 13.117188 -24.5625 12.609375 -24.96875 C 12.097656 -25.375 11.601562 -25.550781 11.125 -25.5 C 10.707031 -25.445312 10.203125 -25.1875 9.609375 -24.71875 C 9.015625 -24.25 8.566406 -23.191406 8.265625 -21.546875 L 6.203125 -10.734375 C 6.160156 -10.484375 6.125 -10.207031 6.09375 -9.90625 C 6.0625 -9.601562 6.066406 -9.273438 6.109375 -8.921875 C 6.253906 -7.648438 6.894531 -7.082031 8.03125 -7.21875 C 8.582031 -7.28125 9.242188 -7.628906 10.015625 -8.265625 C 10.785156 -8.898438 11.34375 -10.09375 11.6875 -11.84375 Z M 13.265625 -19.875 "/></g></g></g><g fill="#b22312" fill-opacity="1"><g transform="translate(51.627402, 161.050736)"><g><path d="M 32.140625 -47.6875 C 33.046875 -47.769531 33.78125 -47.523438 34.34375 -46.953125 C 34.914062 -46.390625 35.242188 -45.707031 35.328125 -44.90625 C 35.410156 -44.070312 35.15625 -43.253906 34.5625 -42.453125 C 33.976562 -41.660156 32.960938 -41.195312 31.515625 -41.0625 L 23.046875 -40.21875 L 14.359375 -4.359375 C 14.117188 -3.367188 13.628906 -2.585938 12.890625 -2.015625 C 12.160156 -1.453125 11.347656 -1.125 10.453125 -1.03125 C 9.472656 -0.9375 8.546875 -1.144531 7.671875 -1.65625 C 6.804688 -2.164062 6.320312 -2.957031 6.21875 -4.03125 C 6.195312 -4.238281 6.191406 -4.472656 6.203125 -4.734375 C 6.210938 -4.992188 6.253906 -5.25 6.328125 -5.5 L 14.46875 -39.359375 L 6.421875 -38.5625 C 5.472656 -38.46875 4.695312 -38.71875 4.09375 -39.3125 C 3.5 -39.90625 3.164062 -40.578125 3.09375 -41.328125 C 3.007812 -42.171875 3.257812 -42.976562 3.84375 -43.75 C 4.4375 -44.53125 5.472656 -45.007812 6.953125 -45.1875 Z M 32.140625 -47.6875 "/></g></g></g><g fill="#b22312" fill-opacity="1"><g transform="translate(76.934028, 158.540472)"><g><path d="M 30.828125 -20.796875 C 31.585938 -20.867188 32.273438 -20.707031 32.890625 -20.3125 C 33.515625 -19.925781 33.875 -19.28125 33.96875 -18.375 C 34.007812 -17.925781 33.941406 -17.34375 33.765625 -16.625 C 33.585938 -15.90625 33.363281 -15.03125 33.09375 -14 C 32.257812 -11.070312 31.144531 -8.769531 29.75 -7.09375 C 28.351562 -5.414062 26.863281 -4.191406 25.28125 -3.421875 C 23.707031 -2.648438 22.1875 -2.195312 20.71875 -2.0625 C 20.207031 -2.007812 19.503906 -2.007812 18.609375 -2.0625 C 17.710938 -2.113281 16.800781 -2.289062 15.875 -2.59375 C 14.945312 -2.90625 14.171875 -3.429688 13.546875 -4.171875 C 12.648438 -3.210938 11.628906 -2.421875 10.484375 -1.796875 C 9.347656 -1.179688 8.175781 -0.8125 6.96875 -0.6875 C 5.445312 -0.539062 4.039062 -0.757812 2.75 -1.34375 C 1.46875 -1.9375 0.414062 -2.796875 -0.40625 -3.921875 C -1.238281 -5.046875 -1.726562 -6.320312 -1.875 -7.75 C -1.914062 -8.21875 -1.90625 -8.691406 -1.84375 -9.171875 C -1.789062 -9.660156 -1.722656 -10.132812 -1.640625 -10.59375 L 1.875 -25.046875 C 2.351562 -27.128906 3.378906 -28.726562 4.953125 -29.84375 C 6.523438 -30.96875 8.160156 -31.613281 9.859375 -31.78125 C 11.171875 -31.90625 12.332031 -31.863281 13.34375 -31.65625 C 14.363281 -31.445312 15.175781 -31.191406 15.78125 -30.890625 C 16.125 -31.597656 16.625 -32.148438 17.28125 -32.546875 C 17.945312 -32.941406 18.644531 -33.175781 19.375 -33.25 C 20.332031 -33.34375 21.234375 -33.132812 22.078125 -32.625 C 22.921875 -32.125 23.398438 -31.296875 23.515625 -30.140625 C 23.566406 -29.628906 23.519531 -29.050781 23.375 -28.40625 L 19.21875 -10.984375 C 19.113281 -10.335938 19.082031 -9.828125 19.125 -9.453125 C 19.207031 -8.585938 19.710938 -8.203125 20.640625 -8.296875 C 21.441406 -8.378906 22.273438 -8.734375 23.140625 -9.359375 C 24.003906 -9.984375 24.820312 -10.960938 25.59375 -12.296875 C 26.375 -13.628906 26.988281 -15.382812 27.4375 -17.5625 C 27.644531 -18.601562 28.078125 -19.382812 28.734375 -19.90625 C 29.398438 -20.425781 30.097656 -20.722656 30.828125 -20.796875 Z M 13.640625 -19.609375 C 13.929688 -20.972656 14.039062 -22.015625 13.96875 -22.734375 C 13.875 -23.640625 13.578125 -24.300781 13.078125 -24.71875 C 12.578125 -25.132812 12.085938 -25.320312 11.609375 -25.28125 C 11.191406 -25.238281 10.679688 -24.988281 10.078125 -24.53125 C 9.472656 -24.070312 9.007812 -23.023438 8.6875 -21.390625 L 6.40625 -10.609375 C 6.363281 -10.359375 6.320312 -10.082031 6.28125 -9.78125 C 6.238281 -9.476562 6.238281 -9.148438 6.28125 -8.796875 C 6.40625 -7.523438 7.035156 -6.945312 8.171875 -7.0625 C 8.722656 -7.113281 9.390625 -7.445312 10.171875 -8.0625 C 10.953125 -8.6875 11.53125 -9.875 11.90625 -11.625 Z M 13.640625 -19.609375 "/></g></g></g><g fill="#b22312" fill-opacity="1"><g transform="translate(104.215674, 155.834298)"><g><path d="M 6.28125 -9.171875 C 6.269531 -9.023438 6.242188 -8.863281 6.203125 -8.6875 C 6.160156 -8.519531 6.144531 -8.382812 6.15625 -8.28125 C 6.1875 -7.894531 6.359375 -7.578125 6.671875 -7.328125 C 6.984375 -7.078125 7.394531 -6.976562 7.90625 -7.03125 C 9.125 -7.15625 10.363281 -7.984375 11.625 -9.515625 C 12.882812 -11.054688 13.945312 -13.445312 14.8125 -16.6875 C 15.101562 -17.695312 15.535156 -18.4375 16.109375 -18.90625 C 16.691406 -19.382812 17.316406 -19.65625 17.984375 -19.71875 C 18.773438 -19.800781 19.507812 -19.601562 20.1875 -19.125 C 20.863281 -18.65625 21.242188 -18.003906 21.328125 -17.171875 C 21.359375 -16.859375 21.34375 -16.507812 21.28125 -16.125 C 20.414062 -12.394531 19.242188 -9.441406 17.765625 -7.265625 C 16.296875 -5.085938 14.695312 -3.503906 12.96875 -2.515625 C 11.25 -1.523438 9.5625 -0.945312 7.90625 -0.78125 C 6.375 -0.632812 4.925781 -0.78125 3.5625 -1.21875 C 2.207031 -1.65625 1.085938 -2.390625 0.203125 -3.421875 C -0.679688 -4.453125 -1.203125 -5.769531 -1.359375 -7.375 C -1.460938 -8.445312 -1.367188 -9.59375 -1.078125 -10.8125 L 6.671875 -42.75 C 7.242188 -45.113281 8.5 -46.394531 10.4375 -46.59375 C 11.238281 -46.664062 12.039062 -46.441406 12.84375 -45.921875 C 13.644531 -45.398438 14.09375 -44.640625 14.1875 -43.640625 C 14.25 -43.085938 14.207031 -42.492188 14.0625 -41.859375 Z M 6.28125 -9.171875 "/></g></g></g><g fill="#b22312" fill-opacity="1"><g transform="translate(118.713917, 154.39616)"><g><path d="M 24.84375 -17.25 C 25 -18.070312 25.394531 -18.71875 26.03125 -19.1875 C 26.675781 -19.65625 27.363281 -19.925781 28.09375 -20 C 28.882812 -20.082031 29.601562 -19.9375 30.25 -19.5625 C 30.90625 -19.1875 31.273438 -18.597656 31.359375 -17.796875 C 31.390625 -17.453125 31.351562 -17.085938 31.25 -16.703125 C 30.425781 -13.285156 29.09375 -10.488281 27.25 -8.3125 C 25.40625 -6.132812 23.296875 -4.488281 20.921875 -3.375 C 18.546875 -2.269531 16.144531 -1.597656 13.71875 -1.359375 C 11.1875 -1.109375 8.867188 -1.285156 6.765625 -1.890625 C 4.660156 -2.503906 2.941406 -3.507812 1.609375 -4.90625 C 0.285156 -6.300781 -0.476562 -8.019531 -0.6875 -10.0625 C -0.738281 -10.65625 -0.734375 -11.265625 -0.671875 -11.890625 C -0.617188 -12.523438 -0.519531 -13.164062 -0.375 -13.8125 L 1.8125 -23.015625 C 2.457031 -25.691406 3.734375 -27.796875 5.640625 -29.328125 C 7.546875 -30.867188 9.660156 -31.753906 11.984375 -31.984375 C 13.953125 -32.179688 15.703125 -31.972656 17.234375 -31.359375 C 18.773438 -30.742188 20.015625 -29.816406 20.953125 -28.578125 C 21.898438 -27.335938 22.457031 -25.882812 22.625 -24.21875 C 22.707031 -23.363281 22.660156 -22.398438 22.484375 -21.328125 C 22.035156 -18.941406 20.921875 -16.957031 19.140625 -15.375 C 17.367188 -13.800781 15.3125 -12.894531 12.96875 -12.65625 C 11.914062 -12.550781 10.914062 -12.601562 9.96875 -12.8125 C 9.03125 -13.019531 8.160156 -13.3125 7.359375 -13.6875 L 7.03125 -12.65625 C 6.945312 -12.40625 6.898438 -12.15625 6.890625 -11.90625 C 6.878906 -11.664062 6.882812 -11.421875 6.90625 -11.171875 C 7.019531 -9.992188 7.671875 -9.054688 8.859375 -8.359375 C 10.054688 -7.660156 11.613281 -7.40625 13.53125 -7.59375 C 15.019531 -7.738281 16.519531 -8.175781 18.03125 -8.90625 C 19.550781 -9.632812 20.925781 -10.6875 22.15625 -12.0625 C 23.382812 -13.445312 24.28125 -15.175781 24.84375 -17.25 Z M 12.4375 -25.828125 C 11.851562 -25.773438 11.285156 -25.492188 10.734375 -24.984375 C 10.191406 -24.484375 9.820312 -23.820312 9.625 -23 L 8.84375 -19.765625 C 9.613281 -19.421875 10.535156 -19.300781 11.609375 -19.40625 C 12.398438 -19.488281 13.128906 -19.738281 13.796875 -20.15625 C 14.460938 -20.570312 14.867188 -21.222656 15.015625 -22.109375 C 15.128906 -22.503906 15.160156 -22.929688 15.109375 -23.390625 C 15.035156 -24.148438 14.753906 -24.765625 14.265625 -25.234375 C 13.773438 -25.703125 13.164062 -25.898438 12.4375 -25.828125 Z M 12.4375 -25.828125 "/></g></g></g><g fill="#b22312" fill-opacity="1"><g transform="translate(143.345341, 151.952872)"><g><path d="M 26.140625 -17.4375 C 26.328125 -18.226562 26.691406 -18.816406 27.234375 -19.203125 C 27.785156 -19.597656 28.367188 -19.828125 28.984375 -19.890625 C 29.816406 -19.972656 30.609375 -19.800781 31.359375 -19.375 C 32.117188 -18.957031 32.539062 -18.375 32.625 -17.625 C 32.632812 -17.519531 32.644531 -17.40625 32.65625 -17.28125 C 32.664062 -17.15625 32.640625 -17.035156 32.578125 -16.921875 C 31.710938 -13.304688 30.328125 -10.378906 28.421875 -8.140625 C 26.515625 -5.910156 24.25 -4.226562 21.625 -3.09375 C 19 -1.957031 16.1875 -1.242188 13.1875 -0.953125 C 10.125 -0.640625 7.488281 -0.773438 5.28125 -1.359375 C 3.070312 -1.941406 1.34375 -2.863281 0.09375 -4.125 C -1.144531 -5.382812 -1.847656 -6.863281 -2.015625 -8.5625 C -2.128906 -9.675781 -2.046875 -10.820312 -1.765625 -12 C -1.492188 -13.1875 -1.015625 -14.257812 -0.328125 -15.21875 C 0.359375 -16.175781 1.265625 -16.851562 2.390625 -17.25 C 3.234375 -19.289062 4.09375 -21.359375 4.96875 -23.453125 C 5.84375 -25.546875 6.6875 -27.632812 7.5 -29.71875 C 7.882812 -30.757812 8.507812 -31.578125 9.375 -32.171875 C 10.25 -32.773438 11.171875 -33.125 12.140625 -33.21875 C 13.460938 -33.351562 14.554688 -33.015625 15.421875 -32.203125 C 16.285156 -31.390625 16.769531 -30.425781 16.875 -29.3125 C 16.945312 -28.5625 16.769531 -27.785156 16.34375 -26.984375 C 15.914062 -26.191406 15.359375 -25.609375 14.671875 -25.234375 C 14.847656 -24.441406 15.203125 -23.632812 15.734375 -22.8125 C 16.273438 -21.988281 16.847656 -21.148438 17.453125 -20.296875 C 18.304688 -19.160156 19.128906 -17.921875 19.921875 -16.578125 C 20.722656 -15.242188 21.195312 -13.816406 21.34375 -12.296875 C 21.375 -11.953125 21.382812 -11.617188 21.375 -11.296875 C 21.375 -10.984375 21.363281 -10.648438 21.34375 -10.296875 C 22.476562 -11.109375 23.441406 -12.101562 24.234375 -13.28125 C 25.023438 -14.46875 25.660156 -15.851562 26.140625 -17.4375 Z M 9.515625 -17.21875 C 10.015625 -16.8125 10.394531 -16.332031 10.65625 -15.78125 C 10.925781 -15.226562 11.09375 -14.65625 11.15625 -14.0625 C 11.28125 -12.789062 10.976562 -11.582031 10.25 -10.4375 C 9.519531 -9.300781 8.394531 -8.65625 6.875 -8.5 C 6.707031 -8.488281 6.515625 -8.476562 6.296875 -8.46875 C 6.085938 -8.46875 5.875 -8.476562 5.65625 -8.5 C 6 -7.863281 6.554688 -7.390625 7.328125 -7.078125 C 8.097656 -6.765625 8.914062 -6.65625 9.78125 -6.75 C 11.15625 -6.945312 12.125 -7.519531 12.6875 -8.46875 C 13.257812 -9.414062 13.488281 -10.5 13.375 -11.71875 C 13.25 -12.925781 12.859375 -14.097656 12.203125 -15.234375 C 11.546875 -16.378906 10.769531 -17.390625 9.875 -18.265625 Z M 9.515625 -17.21875 "/></g></g></g></svg>